HIERARCHY
ROOT Hips
{
  OFFSET 5.84602e-005 68.8428 3.50346
  CHANNELS 6 Xposition Yposition Zposition Zrotation Xrotation Yrotation
  JOINT Spine
  {
    OFFSET 0 8.597 -4.6522
    CHANNELS 3 Zrotation Xrotation Yrotation
    JOINT Spine1
    {
      OFFSET 0 7.8454 0.4098
      CHANNELS 3 Zrotation Xrotation Yrotation
      JOINT Spine2
      {
        OFFSET 0 9.7078 -2.1609
        CHANNELS 3 Zrotation Xrotation Yrotation
        JOINT Neck
        {
          OFFSET 0 21.8761 -0.4549
          CHANNELS 3 Zrotation Xrotation Yrotation
          JOINT Head
          {
            OFFSET 0 12.3537 3.3602
            CHANNELS 3 Zrotation Xrotation Yrotation
            End Site
            {
              OFFSET 0.0001 18.9506 0.5657
            }
          }
        }
        JOINT LeftShoulder
        {
          OFFSET 2.2086 21.1115 7.2329
          CHANNELS 3 Zrotation Xrotation Yrotation
          JOINT LeftArm
          {
            OFFSET 13.1193 3.0282 -4.8998
            CHANNELS 3 Zrotation Xrotation Yrotation
            JOINT LeftForeArm
            {
              OFFSET 27.4081 -0.0973053 -0.2375
              CHANNELS 3 Zrotation Xrotation Yrotation
              JOINT LeftHand
              {
                OFFSET 22.8641 0.0662994 -0.1369
                CHANNELS 3 Zrotation Xrotation Yrotation
                JOINT LeftHandIndex1
                {
                  OFFSET 8.8614 0.775009 2.4612
                  CHANNELS 3 Zrotation Xrotation Yrotation
                  JOINT LeftHandIndex2
                  {
                    OFFSET 3.3146 -0.808304 0.5841
                    CHANNELS 3 Zrotation Xrotation Yrotation
                    JOINT LeftHandIndex3
                    {
                      OFFSET 2.2628 -0.552002 0.3989
                      CHANNELS 3 Zrotation Xrotation Yrotation
                      End Site
                      {
                        OFFSET 1.6102 -0.4807 0.2612
                      }
                    }
                  }
                }
                JOINT LeftHandMiddle1
                {
                  OFFSET 8.9937 0.895004 0.2143
                  CHANNELS 3 Zrotation Xrotation Yrotation
                  JOINT LeftHandMiddle2
                  {
                    OFFSET 4.0984 0.0113983 -0.0242
                    CHANNELS 3 Zrotation Xrotation Yrotation
                    JOINT LeftHandMiddle3
                    {
                      OFFSET 2.2716 0.00689697 -0.0138001
                      CHANNELS 3 Zrotation Xrotation Yrotation
                      End Site
                      {
                        OFFSET 2.0404 -0.1441 0.0027
                      }
                    }
                  }
                }
                JOINT LeftHandRing1
                {
                  OFFSET 8.5234 0.597198 -2.0164
                  CHANNELS 3 Zrotation Xrotation Yrotation
                  JOINT LeftHandRing2
                  {
                    OFFSET 3.7188 -0.188293 -0.2328
                    CHANNELS 3 Zrotation Xrotation Yrotation
                    JOINT LeftHandRing3
                    {
                      OFFSET 2.1191 -0.106598 -0.1332
                      CHANNELS 3 Zrotation Xrotation Yrotation
                      End Site
                      {
                        OFFSET 1.8737 -0.2304 -0.0886
                      }
                    }
                  }
                }
                JOINT LeftHandPinky1
                {
                  OFFSET 7.9094 -0.601089 -3.4825
                  CHANNELS 3 Zrotation Xrotation Yrotation
                  JOINT LeftHandPinky2
                  {
                    OFFSET 2.2874 -0.477005 -0.6314
                    CHANNELS 3 Zrotation Xrotation Yrotation
                    JOINT LeftHandPinky3
                    {
                      OFFSET 1.6774 -0.349396 -0.4633
                      CHANNELS 3 Zrotation Xrotation Yrotation
                      End Site
                      {
                        OFFSET 1.4888 -0.4091 -0.3416
                      }
                    }
                  }
                }
                JOINT LeftHandThumb1
                {
                  OFFSET 1.833 -1.3875 1.3896
                  CHANNELS 3 Zrotation Xrotation Yrotation
                  JOINT LeftHandThumb2
                  {
                    OFFSET 3.4129 -1.121 2.5732
                    CHANNELS 3 Zrotation Xrotation Yrotation
                    JOINT LeftHandThumb3
                    {
                      OFFSET 2.2474 -0.804199 1.6192
                      CHANNELS 3 Zrotation Xrotation Yrotation
                      End Site
                      {
                        OFFSET 1.6527 -0.5689 1.1317
                      }
                    }
                  }
                }
              }
            }
          }
        }
        JOINT RightShoulder
        {
          OFFSET -2.2086 21.1115 7.2329
          CHANNELS 3 Zrotation Xrotation Yrotation
          JOINT RightArm
          {
            OFFSET -13.1216 3.0287 -4.9007
            CHANNELS 3 Zrotation Xrotation Yrotation
            JOINT RightForeArm
            {
              OFFSET -27.4081 -0.0973053 -0.2375
              CHANNELS 3 Zrotation Xrotation Yrotation
              JOINT RightHand
              {
                OFFSET -22.8641 0.0664063 -0.1369
                CHANNELS 3 Zrotation Xrotation Yrotation
                JOINT RightHandIndex1
                {
                  OFFSET -8.8614 0.774994 2.4612
                  CHANNELS 3 Zrotation Xrotation Yrotation
                  JOINT RightHandIndex2
                  {
                    OFFSET -3.3146 -0.808304 0.5841
                    CHANNELS 3 Zrotation Xrotation Yrotation
                    JOINT RightHandIndex3
                    {
                      OFFSET -2.2628 -0.552002 0.3989
                      CHANNELS 3 Zrotation Xrotation Yrotation
                      End Site
                      {
                        OFFSET -1.6102 -0.4807 0.2612
                      }
                    }
                  }
                }
                JOINT RightHandMiddle1
                {
                  OFFSET -8.9937 0.894989 0.2143
                  CHANNELS 3 Zrotation Xrotation Yrotation
                  JOINT RightHandMiddle2
                  {
                    OFFSET -4.0984 0.0113983 -0.0242
                    CHANNELS 3 Zrotation Xrotation Yrotation
                    JOINT RightHandMiddle3
                    {
                      OFFSET -2.2716 0.00691223 -0.0138001
                      CHANNELS 3 Zrotation Xrotation Yrotation
                      End Site
                      {
                        OFFSET -2.0404 -0.1441 0.0027
                      }
                    }
                  }
                }
                JOINT RightHandRing1
                {
                  OFFSET -8.5234 0.597198 -2.0164
                  CHANNELS 3 Zrotation Xrotation Yrotation
                  JOINT RightHandRing2
                  {
                    OFFSET -3.7188 -0.188309 -0.2328
                    CHANNELS 3 Zrotation Xrotation Yrotation
                    JOINT RightHandRing3
                    {
                      OFFSET -2.1191 -0.106598 -0.1332
                      CHANNELS 3 Zrotation Xrotation Yrotation
                      End Site
                      {
                        OFFSET -1.8737 -0.2304 -0.0886
                      }
                    }
                  }
                }
                JOINT RightHandPinky1
                {
                  OFFSET -7.9094 -0.601105 -3.4825
                  CHANNELS 3 Zrotation Xrotation Yrotation
                  JOINT RightHandPinky2
                  {
                    OFFSET -2.2874 -0.477005 -0.6314
                    CHANNELS 3 Zrotation Xrotation Yrotation
                    JOINT RightHandPinky3
                    {
                      OFFSET -1.6774 -0.349396 -0.4633
                      CHANNELS 3 Zrotation Xrotation Yrotation
                      End Site
                      {
                        OFFSET -1.4888 -0.4091 -0.3416
                      }
                    }
                  }
                }
                JOINT RightHandThumb1
                {
                  OFFSET -1.833 -1.38751 1.3896
                  CHANNELS 3 Zrotation Xrotation Yrotation
                  JOINT RightHandThumb2
                  {
                    OFFSET -3.41299 -1.12099 2.5732
                    CHANNELS 3 Zrotation Xrotation Yrotation
                    JOINT RightHandThumb3
                    {
                      OFFSET -2.24741 -0.804108 1.6192
                      CHANNELS 3 Zrotation Xrotation Yrotation
                      End Site
                      {
                        OFFSET -1.6527 -0.5689 1.1317
                      }
                    }
                  }
                }
              }
            }
          }
        }
      }
    }
  }
  JOINT RightUpLeg
  {
    OFFSET -9.1966 3.8861 -0.7581
    CHANNELS 3 Zrotation Xrotation Yrotation
    JOINT RightLeg
    {
      OFFSET -0.7359 -41.0265 0
      CHANNELS 3 Zrotation Xrotation Yrotation
      JOINT RightFoot
      {
        OFFSET 0 -40.2855 0
        CHANNELS 3 Zrotation Xrotation Yrotation
        JOINT RightToeBase
        {
          OFFSET 0 -5.6122 11.7359
          CHANNELS 3 Zrotation Xrotation Yrotation
          End Site
          {
            OFFSET 0 0 7.8731
          }
        }
      }
    }
  }
  JOINT LeftUpLeg
  {
    OFFSET 9.1965 3.8864 -0.7581
    CHANNELS 3 Zrotation Xrotation Yrotation
    JOINT LeftLeg
    {
      OFFSET 0.7359 -41.0268 0
      CHANNELS 3 Zrotation Xrotation Yrotation
      JOINT LeftFoot
      {
        OFFSET 0 -40.2855 0
        CHANNELS 3 Zrotation Xrotation Yrotation
        JOINT LeftToeBase
        {
          OFFSET 0 -5.6122 11.7359
          CHANNELS 3 Zrotation Xrotation Yrotation
          End Site
          {
            OFFSET 0 0 7.8731
          }
        }
      }
    }
  }
}
MOTION
Frames:	4
Frame Time:	0.0333333
5.84602e-005 68.8428 3.50346 0 0 -0 0 0 -0 0 0 -0 0 0 -0 0 0 -0 0 0 -0 0 0 -0 0 0 -0 0 0 -0 0 0 -0 0 0 -0 0 0 -0 0 0 -0 0 0 -0 -0.0146107 -8.87603e-005 -2.63497e-007 2.99804e-018 -2.42657e-020 -1.42182e-022 0 0 -0 -0.0187562 -0.001176 5.858e-005 5.06224e-018 3.88251e-019 1.21329e-020 0 0 -0 -0.012269 -0.00324817 0.000675346 -1.74678e-018 3.88251e-019 -0 0 0 -0 0 0 -0 0 0 -0 0 0 -0 0 0 -0 0 0 -0 0 0 -0 0 0 -0 0 0 -0 0 0 -0 0 0 -0 0.0149955 -9.10982e-005 2.64101e-007 -9.69331e-018 1.21329e-020 -4.7394e-023 0 0 -0 0.0189956 -0.00119102 -5.96516e-005 -5.41541e-019 0 2.42657e-020 0 0 -0 0.0122698 -0.00324857 -0.000673756 -2.00796e-019 0 -1.94126e-019 0 0 -0 0 0 -0 0 0 -0 3.39842 1.33031 -0.0637918 -5.65207e-008 0.834868 -0.000436188 -3.39935 -2.16518 -0.0642563 -8.89002e-024 -1.18485e-023 -1.48106e-024 -3.39844 1.35642 0.0640283 -3.18788e-007 0.782166 -0.000588827 3.39931 -2.13858 0.0634662 1.1399e-023 0 -0 
6.63563e-005 20.547 -60.7523 0 70.9971 -0 -2.32547 5.24553 0.353143 -4.71327 10.4721 0.926622 -4.71327 10.4721 0.926621 -8.63418 17.6334 2.81977 -26.2738 -41.3756 -19.7417 -9.5995 -0.333449 -4.16125 -75.0015 -17.7981 -65.8101 55.4575 -15.904 -119.173 -6.19925 -30.4807 13.6225 -3.18055e-015 1.59028e-015 1.59028e-015 3.18055e-015 6.36111e-015 -4.77083e-015 -6.36111e-015 -1.59028e-015 1.59028e-015 -3.18055e-015 1.59028e-015 1.59028e-015 -0.0145906 -9.24337e-005 2.00683e-006 -9.54166e-015 -1.11319e-014 -0 -3.18055e-015 1.59028e-015 1.59028e-015 -0.018735 -0.00117654 6.28972e-005 -3.18055e-015 1.74931e-014 6.36111e-015 -3.18055e-015 1.59028e-015 1.59028e-015 -0.0122723 -0.00324996 0.000676085 -6.36111e-015 3.97569e-015 -1.59028e-015 -3.18055e-015 1.59028e-015 1.59028e-015 3.18055e-015 6.36111e-015 -4.77083e-015 -6.36111e-015 -1.59028e-015 1.59028e-015 9.67509 -0.559906 4.23358 74.0276 -19.3363 65.0585 -45.8781 -36.9251 98.791 5.72819 -37.0267 -9.10533 1.19271e-015 2.98177e-016 7.95139e-016 8.34504e-032 -6.01324e-015 7.95139e-016 7.95139e-016 -9.24349e-015 -7.95139e-016 1.19271e-015 2.98177e-016 7.95139e-016 0.0149922 -9.30423e-005 -2.68796e-006 7.95139e-016 -9.44227e-015 -0 1.19271e-015 2.98177e-016 7.95139e-016 0.0189983 -0.00118962 -6.23162e-005 -7.95139e-016 -8.94531e-016 -0 1.19271e-015 2.98177e-016 7.95139e-016 0.0122468 -0.00324239 -0.000674458 -3.97569e-016 2.73329e-015 -0 1.19271e-015 2.98177e-016 7.95139e-016 8.34504e-032 -6.01324e-015 7.95139e-016 7.95139e-016 -9.24349e-015 -7.95139e-016 -81.4082 -57.1482 -70.1143 153.966 60.348 -163.554 -7.61508 23.8988 -4.47796 -1.2961e-006 -1.15072e-006 -2.88096e-006 81.4019 -57.1527 70.1084 -153.968 60.3482 163.552 7.61271 23.8981 4.47489 -2.54315e-006 -1.15538e-006 -5.47207e-006 
6.63563e-005 20.547 -60.7523 0 70.9971 -0 -2.19281 5.25165 0.316446 -4.44297 10.4871 0.840755 -4.44298 10.4871 0.84076 -8.26053 16.9575 2.6792 -24.8416 -40.95 -18.4875 -9.94674 -0.00761718 -3.4534 -74.1372 -17.9454 -65.814 55.4575 -15.9041 -119.173 -4.67726 -31.154 14.38 -3.18055e-015 -3.57812e-015 -0 3.2866e-006 9.1114e-007 -1.28797e-006 -6.36111e-015 -1.11319e-014 1.59028e-015 -3.18055e-015 -3.57812e-015 -0 -0.0146197 -9.01317e-005 -4.54833e-007 6.36111e-015 -8.34896e-015 -1.59028e-015 -3.18055e-015 -3.57812e-015 -0 -0.0187798 -0.00117953 5.95594e-005 -9.54166e-015 9.54166e-015 -1.59028e-015 -3.18055e-015 -3.57812e-015 -0 -0.0122698 -0.00324799 0.000670398 -6.62086e-032 -1.19271e-015 -3.18055e-015 -3.18055e-015 -3.57812e-015 -0 3.2866e-006 9.1114e-007 -1.28797e-006 -6.36111e-015 -1.11319e-014 1.59028e-015 9.26228 -0.888474 4.68325 74.0488 -19.1971 65.1258 -45.975 -36.5288 97.8948 5.75082 -36.2239 -9.37369 1.06899e-031 -7.70291e-015 7.95139e-016 3.97569e-016 1.88845e-015 1.59028e-015 -3.97569e-016 -4.47266e-015 7.95139e-016 1.06899e-031 -7.70291e-015 7.95139e-016 0.0150088 -8.89899e-005 -5.81596e-007 -1.19271e-015 -1.66979e-014 2.38542e-015 1.06899e-031 -7.70291e-015 7.95139e-016 0.0189979 -0.00118985 -6.68566e-005 4.90357e-006 -5.80313e-007 2.20176e-006 1.06899e-031 -7.70291e-015 7.95139e-016 0.0122612 -0.00324239 -0.000676167 -7.95139e-016 8.24956e-015 3.18055e-015 1.06899e-031 -7.70291e-015 7.95139e-016 3.97569e-016 1.88845e-015 1.59028e-015 -3.97569e-016 -4.47266e-015 7.95139e-016 -81.4082 -57.1482 -70.1143 153.966 60.348 -163.554 -7.61508 23.8988 -4.47796 -1.2961e-006 -1.15072e-006 -2.88096e-006 81.4019 -57.1527 70.1084 -153.968 60.3482 163.552 7.61271 23.8981 4.47489 -2.54315e-006 -1.15538e-006 -5.47207e-006 
6.63563e-005 20.547 -60.7523 0 70.9971 -0 -2.06 5.25759 0.279697 -4.17234 10.5015 0.754719 -4.17234 10.5015 0.754724 -7.8894 16.2801 2.54354 -23.4262 -40.4994 -17.2516 -10.2986 0.314523 -2.74228 -73.2705 -18.0931 -65.8156 55.4575 -15.9041 -119.173 -3.12544 -31.8132 15.1681 3.18055e-015 4.77083e-015 -1.59028e-015 3.28399e-006 9.17886e-007 -1.29148e-006 -3.18055e-015 -3.57812e-015 -4.77083e-015 3.18055e-015 4.77083e-015 -1.59028e-015 -0.0146022 -8.556e-005 -1.20212e-005 1.80875e-006 1.21992e-006 -2.41205e-008 3.18055e-015 4.77083e-015 -1.59028e-015 -0.01877 -0.00117421 6.17289e-005 -1.80832e-006 -1.21981e-006 2.40857e-008 3.18055e-015 4.77083e-015 -1.59028e-015 -0.0122586 -0.0032454 0.000678448 -1.23589e-030 2.22639e-014 3.18055e-015 3.18055e-015 4.77083e-015 -1.59028e-015 3.28399e-006 9.17886e-007 -1.29148e-006 -3.18055e-015 -3.57812e-015 -4.77083e-015 8.85151 -1.22061 5.13112 74.0697 -19.0578 65.1929 -46.0639 -36.1305 97.002 5.7779 -35.4197 -9.64017 3.97569e-016 2.83268e-015 -0 1.19271e-015 2.83268e-015 7.95139e-016 3.97569e-016 -3.97569e-016 -0 3.97569e-016 2.83268e-015 -0 0.0150061 -8.98267e-005 2.01252e-006 2.08281e-031 7.50412e-015 -1.59028e-015 3.97569e-016 2.83268e-015 -0 0.0189945 -0.00119183 -5.78254e-005 -3.97569e-016 -1.23743e-014 1.59028e-015 3.97569e-016 2.83268e-015 -0 0.0122889 -0.00325622 -0.000677804 -2.82766e-032 2.03754e-015 7.95139e-016 3.97569e-016 2.83268e-015 -0 1.19271e-015 2.83268e-015 7.95139e-016 3.97569e-016 -3.97569e-016 -0 -81.4082 -57.1482 -70.1143 153.966 60.348 -163.554 -7.61508 23.8988 -4.47796 -1.2961e-006 -1.15072e-006 -2.88096e-006 81.4019 -57.1527 70.1084 -153.968 60.3482 163.552 7.61271 23.8981 4.47489 -2.54315e-006 -1.15538e-006 -5.47207e-006 
